<?xml version="1.0" encoding="UTF-8"?>
<svg width="180px" height="180px" viewBox="0 0 180 180" version="1.1" xmlns="http://www.w3.org/2000/svg" xmlns:xlink="http://www.w3.org/1999/xlink">
    <!-- Generator: Sketch 56.3 (81716) - https://sketch.com -->
    <title>background tile</title>
    <desc>Created with Sketch.</desc>
    <g id="background-tile" stroke="none" stroke-width="1" fill="none" fill-rule="evenodd">
        <rect id="Rectangle" fill="#06B8B3" x="0" y="0" width="196" height="196"></rect>
        <path d="M90.308872,0 L88.308872,180" id="Line" stroke-opacity="0.497077142" stroke="#F2F2F2" stroke-width="2" stroke-linecap="square"></path>
        <path d="M27.808872,0 L25.808872,180" id="Line" stroke-opacity="0.497077142" stroke="#F2F2F2" stroke-width="2" stroke-linecap="square"></path>
        <path d="M154.308872,-2 L152.308872,178" id="Line" stroke-opacity="0.497077142" stroke="#F2F2F2" stroke-width="2" stroke-linecap="square"></path>
        <path d="M18.2296425,28.6355452 C15.8671428,30.7540633 14.5449745,36.4851933 13.8934908,45.5520047 C13.7132725,48.0601331 13.6911369,48.5161065 13.4192312,54.694674 C13.3432701,56.4207528 13.2864381,57.5571258 13.2201216,58.5979942 C12.4305617,70.9905065 13.6887069,78.1603965 17.0274636,84.3873455 C19.7227006,89.4140978 32.1454682,90.6214204 36.4679077,86.6483447 C40.8100607,82.6571488 43.1046014,72.0334694 42.5301203,57.2666877 C41.9861972,43.2853863 40.156569,33.6996727 37.3979976,28.3493018 C35.11116,23.9138795 23.6728289,23.754491 18.2296425,28.6355452 Z" id="Rectangle" stroke-opacity="0.497077142" stroke="#F2F2F2" stroke-width="2" fill="#06B8B3"></path>
        <path d="M79.2296425,130.635545 C76.8671428,132.754063 75.5449745,138.485193 74.8934908,147.552005 C74.7132725,150.060133 74.6911369,150.516107 74.4192312,156.694674 C74.3432701,158.420753 74.2864381,159.557126 74.2201216,160.597994 C73.4305617,172.990507 74.6887069,180.160397 78.0274636,186.387346 C80.7227006,191.414098 93.1454682,192.62142 97.4679077,188.648345 C101.810061,184.657149 104.104601,174.033469 103.53012,159.266688 C102.986197,145.285386 101.156569,135.699673 98.3979976,130.349302 C96.11116,125.91388 84.6728289,125.754491 79.2296425,130.635545 Z" id="Rectangle" stroke-opacity="0.497077142" stroke="#F2F2F2" stroke-width="2" fill="#06B8B3"></path>
        <path d="M80.2296425,-49.3644548 C77.8671428,-47.2459367 76.5449745,-41.5148067 75.8934908,-32.4479953 C75.7132725,-29.9398669 75.6911369,-29.4838935 75.4192312,-23.305326 C75.3432701,-21.5792472 75.2864381,-20.4428742 75.2201216,-19.4020058 C74.4305617,-7.00949348 75.6887069,0.160396532 79.0274636,6.3873455 C81.7227006,11.4140978 94.1454682,12.6214204 98.4679077,8.6483447 C102.810061,4.65714878 105.104601,-5.96653058 104.53012,-20.7333123 C103.986197,-34.7146137 102.156569,-44.3003273 99.3979976,-49.6506982 C97.11116,-54.0861205 85.6728289,-54.245509 80.2296425,-49.3644548 Z" id="Rectangle" stroke-opacity="0.497077142" stroke="#F2F2F2" stroke-width="2" fill="#06B8B3"></path>
        <path d="M15.9813915,112.912293 C13.7473619,113.944304 12.5152879,116.695523 11.8864745,121.203771 C11.7088967,122.476907 11.686977,122.709511 11.4165691,125.874876 C11.3398782,126.772611 11.282313,127.365567 11.2145837,127.913196 C10.4520271,134.078881 11.6354311,137.55304 14.8389798,140.630957 C17.5241996,143.210872 30.2803685,143.849518 34.7166742,141.748864 C38.9096364,139.763438 41.0889829,134.565388 40.5322038,127.192663 C39.9996145,120.140253 38.2273602,115.357008 35.5800059,112.71188 C33.303646,110.437434 21.5218842,110.352859 15.9813915,112.912293 Z" id="Rectangle" stroke-opacity="0.497077142" stroke="#F2F2F2" stroke-width="2" fill="#06B8B3"></path>
        <path d="M17.9813915,-22.0877074 C15.7473619,-21.0556964 14.5152879,-18.3044767 13.8864745,-13.7962291 C13.7088967,-12.5230932 13.686977,-12.2904887 13.4165691,-9.12512394 C13.3398782,-8.22738855 13.282313,-7.63443272 13.2145837,-7.0868038 C12.4520271,-0.921119108 13.6354311,2.5530403 16.8389798,5.63095686 C19.5241996,8.21087153 32.2803685,8.84951759 36.7166742,6.74886434 C40.9096364,4.76343765 43.0889829,-0.434612404 42.5322038,-7.80733718 C41.9996145,-14.8597474 40.2273602,-19.6429923 37.5800059,-22.2881203 C35.303646,-24.5625661 23.5218842,-24.6471406 17.9813915,-22.0877074 Z" id="Rectangle" stroke-opacity="0.497077142" stroke="#F2F2F2" stroke-width="2" fill="#06B8B3"></path>
        <path d="M79.9813915,75.9122926 C77.7473619,76.9443036 76.5152879,79.6955233 75.8864745,84.2037709 C75.7088967,85.4769068 75.686977,85.7095113 75.4165691,88.8748761 C75.3398782,89.7726114 75.282313,90.3655673 75.2145837,90.9131962 C74.4520271,97.0788809 75.6354311,100.55304 78.8389798,103.630957 C81.5241996,106.210872 94.2803685,106.849518 98.7166742,104.748864 C102.909636,102.763438 105.088983,97.5653876 104.532204,90.1926628 C103.999614,83.1402526 102.22736,78.3570077 99.5800059,75.7118797 C97.303646,73.4374339 85.5218842,73.3528594 79.9813915,75.9122926 Z" id="Rectangle" stroke-opacity="0.497077142" stroke="#F2F2F2" stroke-width="2" fill="#06B8B3"></path>
        <path d="M143.981391,11.9122926 C141.747362,12.9443036 140.515288,15.6955233 139.886475,20.2037709 C139.708897,21.4769068 139.686977,21.7095113 139.416569,24.8748761 C139.339878,25.7726114 139.282313,26.3655673 139.214584,26.9131962 C138.452027,33.0788809 139.635431,36.5530403 142.83898,39.6309569 C145.5242,42.2108715 158.280368,42.8495176 162.716674,40.7488643 C166.909636,38.7634377 169.088983,33.5653876 168.532204,26.1926628 C167.999614,19.1402526 166.22736,14.3570077 163.580006,11.7118797 C161.303646,9.43743394 149.521884,9.35285942 143.981391,11.9122926 Z" id="Rectangle" stroke-opacity="0.497077142" stroke="#F2F2F2" stroke-width="2" fill="#06B8B3"></path>
        <path d="M80.9813915,30.9122926 C78.7473619,31.9443036 77.5152879,34.6955233 76.8864745,39.2037709 C76.7088967,40.4769068 76.686977,40.7095113 76.4165691,43.8748761 C76.3398782,44.7726114 76.282313,45.3655673 76.2145837,45.9131962 C75.4520271,52.0788809 76.6354311,55.5530403 79.8389798,58.6309569 C82.5241996,61.2108715 95.2803685,61.8495176 99.7166742,59.7488643 C103.909636,57.7634377 106.088983,52.5653876 105.532204,45.1926628 C104.999614,38.1402526 103.22736,33.3570077 100.580006,30.7118797 C98.303646,28.4374339 86.5218842,28.3528594 80.9813915,30.9122926 Z" id="Rectangle" stroke-opacity="0.497077142" stroke="#F2F2F2" stroke-width="2" fill="#06B8B3"></path>
        <path d="M16.9813915,155.912293 C14.7473619,156.944304 13.5152879,159.695523 12.8864745,164.203771 C12.7088967,165.476907 12.686977,165.709511 12.4165691,168.874876 C12.3398782,169.772611 12.282313,170.365567 12.2145837,170.913196 C11.4520271,177.078881 12.6354311,180.55304 15.8389798,183.630957 C18.5241996,186.210872 31.2803685,186.849518 35.7166742,184.748864 C39.9096364,182.763438 42.0889829,177.565388 41.5322038,170.192663 C40.9996145,163.140253 39.2273602,158.357008 36.5800059,155.71188 C34.303646,153.437434 22.5218842,153.352859 16.9813915,155.912293 Z" id="Rectangle" stroke-opacity="0.497077142" stroke="#F2F2F2" stroke-width="2" fill="#06B8B3"></path>
        <path d="M142.981391,146.912293 C140.747362,147.944304 139.515288,150.695523 138.886475,155.203771 C138.708897,156.476907 138.686977,156.709511 138.416569,159.874876 C138.339878,160.772611 138.282313,161.365567 138.214584,161.913196 C137.452027,168.078881 138.635431,171.55304 141.83898,174.630957 C144.5242,177.210872 157.280368,177.849518 161.716674,175.748864 C165.909636,173.763438 168.088983,168.565388 167.532204,161.192663 C166.999614,154.140253 165.22736,149.357008 162.580006,146.71188 C160.303646,144.437434 148.521884,144.352859 142.981391,146.912293 Z" id="Rectangle" stroke-opacity="0.497077142" stroke="#F2F2F2" stroke-width="2" fill="#06B8B3"></path>
        <path d="M144.229643,64.6355452 C141.867143,66.7540633 140.544974,72.4851933 139.893491,81.5520047 C139.713273,84.0601331 139.691137,84.5161065 139.419231,90.694674 C139.34327,92.4207528 139.286438,93.5571258 139.220122,94.5979942 C138.430562,106.990507 139.688707,114.160397 143.027464,120.387346 C145.722701,125.414098 158.145468,126.62142 162.467908,122.648345 C166.810061,118.657149 169.104601,108.033469 168.53012,93.2666877 C167.986197,79.2853863 166.156569,69.6996727 163.397998,64.3493018 C161.11116,59.9138795 149.672829,59.754491 144.229643,64.6355452 Z" id="Rectangle" stroke-opacity="0.497077142" stroke="#F2F2F2" stroke-width="2" fill="#06B8B3"></path>
    </g>
</svg>